<?xml version="1.0" encoding="UTF-8"?>
<svg id="Calque_1" data-name="Calque 1" xmlns="http://www.w3.org/2000/svg" xmlns:xlink="http://www.w3.org/1999/xlink" viewBox="0 0 800 250.33">
  <defs>
    <style>
      .cls-1 {
        fill: #d6402a;
      }

      .cls-2 {
        fill: url(#Dégradé_sans_nom_223-4);
      }

      .cls-3 {
        fill: url(#Dégradé_sans_nom_223-3);
      }

      .cls-4 {
        fill: url(#Dégradé_sans_nom_223-2);
      }

      .cls-5 {
        fill: #223273;
      }

      .cls-6 {
        fill: url(#Dégradé_sans_nom_223);
      }
    </style>
    <linearGradient id="Dégradé_sans_nom_223" data-name="Dégradé sans nom 223" x1="135.86" y1="27.18" x2="191.18" y2="27.18" gradientUnits="userSpaceOnUse">
      <stop offset="0" stop-color="#828282"/>
      <stop offset=".16" stop-color="#868686"/>
      <stop offset=".35" stop-color="#939393"/>
      <stop offset=".54" stop-color="#aaa"/>
      <stop offset=".74" stop-color="#c9c9c9"/>
      <stop offset=".94" stop-color="#f0f0f0"/>
      <stop offset="1" stop-color="#fff"/>
    </linearGradient>
    <linearGradient id="Dégradé_sans_nom_223-2" data-name="Dégradé sans nom 223" x1="123.15" y1="91.97" x2="178.47" y2="91.97" gradientTransform="translate(56.46 -56.59) rotate(9.38) scale(.87 .82) skewX(17.82)" xlink:href="#Dégradé_sans_nom_223"/>
    <linearGradient id="Dégradé_sans_nom_223-3" data-name="Dégradé sans nom 223" x1="132.53" y1="94.4" x2="187.85" y2="94.4" gradientTransform="translate(56.46 -56.59) rotate(9.38) scale(.87 .82) skewX(17.82)" xlink:href="#Dégradé_sans_nom_223"/>
    <linearGradient id="Dégradé_sans_nom_223-4" data-name="Dégradé sans nom 223" x1="221.65" y1="61.9" x2="276.97" y2="61.9" gradientTransform="translate(-44.81 44.92) rotate(-8.5) scale(1.19 1.14) skewX(-16.31)" xlink:href="#Dégradé_sans_nom_223"/>
  </defs>
  <path class="cls-1" d="M115.14,123.45c-1.83-1.71-1.19-3.64-1.04-5.1l.22-2.14,1.76-26.02c.39-5.8,2.09-9.56,6.05-13.88l13.12-14.31c4.85-5.29,11.93-6.6,18.76-4.35l23.63,7.78-62.48,58.02Z"/>
  <path class="cls-1" d="M192.2,89.93c4.02,11.99,6.51,19.41-2.9,28.33l-13.38,12.68c-2.47,2.34-4.78,4.73-8.41,5.11l-21.61,2.25-3.74.17-14.69,1.47,6.03-6.62c1.89-2.08,3.45-3.97,6.04-5.28,9.55-4.84,19.55-8.69,28.52-14.62l24.14-23.47Z"/>
  <g>
    <path class="cls-5" d="M65.68,168.71v-36c0-11.99-17.45-10.01-29.27-9.93l.06-17.65c11.63-2.28,22.33-5.73,31.62-11.89,4.4-2.92,9.1-5.82,12-10.36h25.9l-.11,48.8-40.2,37.03Z"/>
    <path class="cls-5" d="M105.99,164.37v56.01s-40.31,0-40.31,0v-11.64l40.31-44.36Z"/>
  </g>
  <path class="cls-5" d="M49.42,220.4c-4.52,4.36-10.81,5.31-16.99,5.75L0,250.33l27.18-30.63c-.28-5.9,1.08-11.59,5.09-15.76l11.88-10.01s.06-.05.09-.08c1.05-1.01,1.48-1.36,2.4-2.21.1-.09.25-.09.35,0,3.68,3.25,7.34,6.09,12.14,8.66l-8.58-11.54c-.36-.46-.39-.37.25-.95l131.45-121.15c1.99-.44,3.67,2.12,3.71,3.71.05,1.8-1.54,2.97-3.38,4.45l5.97.76c1.22.16,3.76.4,4.37,2.02,1.28,3.42-.95,6.68-3.22,9.05l-12.44,12.98-3.82,3.56c-3.24,3.02-6.1,6.4-10.15,8.49l-26.92,13.71-86.95,95.01Z"/>
  <path class="cls-5" d="M420.24,164.06c-3.39,15.32-13.52,26.71-27.95,31.95-7.68,2.87-15.61,4.09-24.04,4.12l-47.83.08,15.54-80.64,45.7.11c7.61.01,14.64,1.39,21.62,3.95,17.05,7.3,20.99,22.19,16.96,40.43ZM392.04,140.72c-3.63-2.22-7.93-3.42-12.11-3.45h-25.2l-8.69,45.09h22.27c6.13-.02,12.2-1.15,17.51-4.04,13.29-7.23,17.49-29.37,6.23-37.61Z"/>
  <path class="cls-5" d="M613.75,200.21h-24.34l-12.88-30.87h-21.92l-5.92,30.87h-22.44l15.47-80.64,49.18.1c5.56,0,10.99,1.04,15.91,2.86,9.96,3.05,14.37,11.94,13.4,21.96-1.17,12.08-8.25,21.96-20.61,25.44l14.16,30.29ZM589.34,155.07c4.2-1.18,6.99-4.47,7.79-8.19.99-4.63-2.4-9.02-7.12-9.41-1.08-.09-2.2-.12-3.33-.18-.15,0-.31-.01-.46-.01h-25.46l-4.15,19.14,21.66.13c3.68-.21,7.23-.27,11.07-1.47Z"/>
  <path class="cls-5" d="M800,140.49l-21.13,4.19c-.81-4.31-3.54-7.4-7.54-8.64-12.95-3.99-33.42-2.15-33.03,7.25.1,2.31,2.09,4.43,4.69,4.82l16.28,2.44c7.61,1.14,14.97,1.19,22.26,3.77,4.84,1.71,10.52,4.65,12.44,9.71,5.58,14.69-3.27,29.47-17.95,34.43-14.99,5.07-31.01,5.01-46.62,1.79-13.05-2.7-21.22-9.52-20.56-23.2l20.75-4.11c-.05,5.29,3.15,9.48,8.39,10.79,16.29,4.07,38.62.92,34.3-9.94-1.2-3.01-5.19-4.01-8.17-4.35l-25.36-2.95c-9.67-1.12-20.73-5.4-22.44-14.83-1.4-7.7.49-16.07,5.98-21.87,12.1-12.8,36.62-13.96,53.91-11.1.06.01.13.02.19.03,9.19,1.56,16.99,7.64,20.95,16.08l2.66,5.68Z"/>
  <path class="cls-5" d="M489.72,184.45h-41.37l-10.05,15.76h-24.5l51.42-80.64h24.5l29.57,80.64h-24.09l-5.47-15.76ZM484.8,169.34l-9.64-32.07-17.17,32.07"/>
  <polygon class="cls-5" points="667.53 200.28 645.3 200.21 657.47 137.34 625.82 137.28 629.22 119.57 714.56 119.57 711.16 137.28 679.5 137.28 667.53 200.28"/>
  <path class="cls-5" d="M232.9,200.21l10.55-55.01-20.88-.1,2.84-14.82c9.47-.41,16.69-3.88,22.96-10.72h21.87l-14.99,80.67-22.35-.02Z"/>
  <polygon class="cls-5" points="312.42 169.34 274.9 169.34 278.2 152.15 315.72 152.14 312.42 169.34"/>
  <polyline class="cls-6" points="190.09 0 135.86 54.36 191.18 1.08 190.09 0 135.86 54.36"/>
  <polyline class="cls-4" points="217.94 24.15 179.08 63.09 219.02 25.23 217.94 24.15 179.08 63.09"/>
  <polyline class="cls-3" points="226.33 27.56 187.48 66.5 227.42 28.65 226.33 27.56 187.48 66.5"/>
  <polyline class="cls-2" points="273.33 37.28 200.04 110.74 274.42 38.36 273.34 37.28 200.04 110.74"/>
</svg>