<?xml version="1.0" encoding="UTF-8"?>
<svg id="Calque_1" data-name="Calque 1" xmlns="http://www.w3.org/2000/svg" xmlns:xlink="http://www.w3.org/1999/xlink" viewBox="0 0 800 272.86">
  <defs>
    <style>
      .cls-1 {
        fill: #d6402a;
      }

      .cls-2 {
        fill: url(#Dégradé_sans_nom_223-4);
      }

      .cls-3 {
        fill: url(#Dégradé_sans_nom_223-3);
      }

      .cls-4 {
        fill: url(#Dégradé_sans_nom_223-2);
      }

      .cls-5 {
        fill: #ffffff;
      }

      .cls-6 {
        fill: url(#Dégradé_sans_nom_223);
      }
    </style>
    <linearGradient id="Dégradé_sans_nom_223" data-name="Dégradé sans nom 223" x1="148.09" y1="29.63" x2="208.39" y2="29.63" gradientUnits="userSpaceOnUse">
      <stop offset="0" stop-color="#828282"/>
      <stop offset=".16" stop-color="#868686"/>
      <stop offset=".35" stop-color="#939393"/>
      <stop offset=".54" stop-color="#aaa"/>
      <stop offset=".74" stop-color="#c9c9c9"/>
      <stop offset=".94" stop-color="#f0f0f0"/>
      <stop offset="1" stop-color="#fff"/>
    </linearGradient>
    <linearGradient id="Dégradé_sans_nom_223-2" data-name="Dégradé sans nom 223" x1="143.56" y1="90.9" x2="203.86" y2="90.9" gradientTransform="translate(54.86 -54.99) rotate(9.38) scale(.87 .82) skewX(17.82)" xlink:href="#Dégradé_sans_nom_223"/>
    <linearGradient id="Dégradé_sans_nom_223-3" data-name="Dégradé sans nom 223" x1="153.78" y1="93.55" x2="214.08" y2="93.55" gradientTransform="translate(54.86 -54.99) rotate(9.38) scale(.87 .82) skewX(17.82)" xlink:href="#Dégradé_sans_nom_223"/>
    <linearGradient id="Dégradé_sans_nom_223-4" data-name="Dégradé sans nom 223" x1="237.15" y1="71.93" x2="297.45" y2="71.93" gradientTransform="translate(-42.83 42.93) rotate(-8.5) scale(1.19 1.14) skewX(-16.31)" xlink:href="#Dégradé_sans_nom_223"/>
  </defs>
  <path class="cls-1" d="M125.5,134.56c-1.99-1.86-1.3-3.96-1.13-5.56l.23-2.33,1.91-28.36c.43-6.32,2.28-10.42,6.59-15.13l14.3-15.6c5.29-5.77,13.01-7.19,20.44-4.74l25.76,8.48-68.11,63.25Z"/>
  <path class="cls-1" d="M209.5,98.02c4.38,13.07,7.1,21.16-3.16,30.88l-14.59,13.82c-2.69,2.55-5.21,5.16-9.16,5.57l-23.55,2.45-4.08.18-16.01,1.6,6.58-7.22c2.06-2.26,3.76-4.32,6.59-5.75,10.41-5.28,21.31-9.47,31.08-15.94l26.31-25.59Z"/>
  <g>
    <path class="cls-5" d="M71.59,183.89v-39.24c0-13.07-19.02-10.91-31.9-10.82l.06-19.23c12.67-2.48,24.34-6.24,34.47-12.96,4.79-3.18,9.91-6.34,13.08-11.29h28.23l-.12,53.19-43.82,40.36Z"/>
    <path class="cls-5" d="M115.53,179.16v61.05s-43.94,0-43.94,0v-12.69l43.94-48.35Z"/>
  </g>
  <path class="cls-5" d="M53.86,240.24c-4.93,4.75-11.78,5.79-18.52,6.26L0,272.86l29.63-33.39c-.3-6.44,1.17-12.63,5.55-17.17l12.95-10.91s.06-.06.09-.08c1.14-1.1,1.61-1.49,2.62-2.41.11-.1.27-.1.38,0,4.01,3.55,8,6.64,13.24,9.44l-9.36-12.57c-.4-.5-.42-.4.27-1.04L198.65,72.65c2.17-.48,4,2.32,4.04,4.05.05,1.97-1.68,3.24-3.68,4.86l6.51.83c1.33.17,4.1.43,4.76,2.2,1.4,3.73-1.03,7.28-3.51,9.87l-13.56,14.15-4.17,3.88c-3.53,3.29-6.65,6.98-11.06,9.25l-29.34,14.94-94.78,103.57Z"/>
  <path class="cls-5" d="M386.06,178.82c-3.69,16.7-14.74,29.12-30.47,34.83-8.37,3.13-17.02,4.46-26.21,4.49l-52.14.09,16.94-87.9,49.81.12c8.3.01,15.96,1.52,23.57,4.3,18.58,7.96,22.88,24.19,18.49,44.06ZM355.32,153.39c-3.96-2.42-8.64-3.73-13.2-3.76h-27.47l-9.47,49.15h24.27c6.68-.02,13.3-1.26,19.08-4.4,14.48-7.88,19.06-32.02,6.79-40.99Z"/>
  <path class="cls-5" d="M596.98,218.23h-26.53l-14.04-33.65h-23.89l-6.45,33.65h-24.46l16.86-87.9,53.6.11c6.06,0,11.98,1.14,17.35,3.12,10.86,3.32,15.66,13.01,14.6,23.93-1.28,13.17-8.99,23.94-22.47,27.73l15.43,33.01ZM570.38,169.02c4.58-1.28,7.62-4.87,8.49-8.92,1.08-5.05-2.62-9.83-7.76-10.26-1.18-.1-2.39-.13-3.63-.2-.17,0-.33-.02-.5-.02h-27.75l-4.52,20.86,23.61.14c4.01-.23,7.89-.29,12.07-1.6Z"/>
  <path class="cls-5" d="M800,153.13l-23.03,4.56c-.89-4.69-3.85-8.07-8.22-9.41-14.12-4.35-36.43-2.34-36,7.91.11,2.52,2.28,4.83,5.11,5.25l17.74,2.66c8.3,1.24,16.32,1.3,24.26,4.1,5.28,1.86,11.46,5.06,13.56,10.58,6.08,16.01-3.57,32.12-19.57,37.53-16.34,5.53-33.8,5.47-50.82,1.95-14.23-2.94-23.13-10.38-22.41-25.29l22.62-4.48c-.05,5.76,3.43,10.34,9.15,11.76,17.76,4.44,42.1,1.01,37.39-10.83-1.31-3.28-5.65-4.37-8.91-4.75l-27.64-3.21c-10.54-1.22-22.59-5.88-24.46-16.16-1.52-8.39.54-17.51,6.52-23.84,13.19-13.95,39.91-15.21,58.76-12.1.07.01.14.02.21.04,10.02,1.7,18.52,8.33,22.83,17.53l2.9,6.19Z"/>
  <path class="cls-5" d="M461.8,201.05h-45.09l-10.95,17.18h-26.71l56.04-87.9h26.71l32.23,87.9h-26.26l-5.96-17.18ZM456.43,184.58l-10.5-34.95-18.72,34.95"/>
  <polygon class="cls-5" points="655.6 218.3 631.38 218.23 644.65 149.7 610.14 149.63 613.85 130.33 706.87 130.33 703.17 149.63 668.65 149.63 655.6 218.3"/>
  <polygon class="cls-5" points="251.59 184.58 210.69 184.58 214.29 165.84 255.19 165.83 251.59 184.58"/>
  <polyline class="cls-6" points="207.2 0 148.09 59.25 208.39 1.18 207.2 0 148.09 59.25"/>
  <polyline class="cls-4" points="237.55 26.32 195.2 68.76 238.74 27.5 237.55 26.32 195.2 68.76"/>
  <polyline class="cls-3" points="246.7 30.04 204.35 72.49 247.89 31.22 246.7 30.05 204.35 72.49"/>
  <polyline class="cls-2" points="297.94 40.63 218.05 120.71 299.12 41.81 297.94 40.63 218.05 120.71"/>
</svg>
